<svg width="110" height="110" viewBox="0 0 110 110" fill="none" xmlns="http://www.w3.org/2000/svg">
<g id="Group 1171275243">
<circle id="Ellipse 101" cx="55" cy="55" r="55" fill="#CFAC6A"/>
<g id="Group 1171275192">
<g id="Vector">
<mask id="path-2-inside-1_10060_14201" fill="white">
<path d="M71.5478 57.2654C71.5428 57.2554 71.5428 57.243 71.5478 57.233L66.8138 45.6687H67.115C67.4714 45.6687 67.8102 45.5292 68.0613 45.2802C68.3123 45.0311 68.4554 44.6924 68.4554 44.3411V41.584C68.4554 41.2328 68.3123 40.8941 68.0613 40.645C67.8103 40.3959 67.4714 40.2564 67.115 40.2564H62.4311C60.9827 40.2564 59.8105 41.4171 59.8055 42.8542V43.0659C59.8105 43.4744 59.9109 43.8778 60.1017 44.2415C59.7453 44.0248 59.4365 43.7459 59.183 43.4171C58.3145 42.2589 56.944 41.5765 55.4881 41.5715H55.1593H55.1618C54.7903 41.5715 54.4916 41.8679 54.4916 42.2366C54.4916 42.6027 54.7903 42.8991 55.1618 42.8991H55.4906H55.4881C56.5248 42.9091 57.4962 43.4022 58.1137 44.2291C58.8994 45.2751 60.1017 45.9377 61.412 46.0473L62.7097 60.6052L62.7122 60.6077C62.431 60.9115 62.17 61.2303 61.929 61.5641L54.3985 61.5292C53.4396 58.9838 53.2087 56.2266 53.7283 53.5591H55.1741C55.3523 53.5591 55.523 53.4894 55.6485 53.3648C55.774 53.2403 55.8443 53.0709 55.8443 52.8966V51.0087C55.8393 49.4844 54.5943 48.2491 53.0581 48.2466H45.0257V39.32C45.0257 38.4383 44.6743 37.594 44.0468 36.9713C43.4193 36.3487 42.5684 36 41.6798 36H30.4544C28.607 36 27.1085 37.4869 27.1085 39.32V50.2467C27.1034 50.9641 27.3394 51.6665 27.7762 52.2393H25.6677C25.2987 52.2393 25 52.5357 25 52.9018C25 53.2704 25.2987 53.5668 25.6677 53.5668H27.7084L34.034 60.8719H34.0365C33.0651 62.3215 32.5329 64.0152 32.4953 65.7536V66.4709C32.4903 66.6502 32.558 66.8221 32.6835 66.9491C32.8116 67.0786 32.9848 67.1509 33.1655 67.1484H34.9201C35.2564 70.7599 38.3087 73.522 41.9635 73.522C45.6183 73.522 48.6727 70.7599 49.0095 67.1484H51.0175L53.1461 69.2131V69.2156C53.2716 69.3352 53.4398 69.4024 53.6155 69.3999H62.7923C62.9705 69.3975 63.1437 69.3252 63.2667 69.1957C64.1503 71.1583 65.812 72.6702 67.8577 73.375C69.9034 74.0824 72.155 73.918 74.0727 72.9217C75.993 71.9255 77.4137 70.187 77.9961 68.1147C78.5809 66.045 78.2772 63.8283 77.1552 61.9877H77.7526C78.0111 61.9902 78.2496 61.8432 78.36 61.6091C78.473 61.375 78.4353 61.0985 78.2672 60.8993C76.5779 58.8793 74.1734 57.5792 71.5478 57.2654ZM70.0895 57.2131H70.087C67.858 57.2629 65.7043 58.035 63.9573 59.4123L62.7323 45.6687H65.3705L70.0895 57.2131ZM62.4311 44.341C61.7207 44.341 61.1459 43.7707 61.1459 43.0658V42.8541C61.1484 42.1517 61.7233 41.5839 62.4311 41.5839H67.115V44.341L62.4311 44.341ZM45.026 50.2464V49.5814H53.0583C53.859 49.5814 54.5092 50.2215 54.5117 51.016V52.2389H44.3581C44.7924 51.6636 45.026 50.9637 45.026 50.2464ZM33.4067 37.3271H38.7206V39.8502C38.7206 40.027 38.6503 40.1964 38.5248 40.3209C38.3993 40.4454 38.2286 40.5152 38.0529 40.5152H34.0769C33.7054 40.5152 33.4066 40.2188 33.4066 39.8501L33.4067 37.3271ZM28.4467 39.3197C28.4467 38.2188 29.3453 37.3271 30.4548 37.3271H32.0687V39.8502C32.0687 40.9511 32.9673 41.8427 34.0768 41.8427H38.0529C39.1598 41.8427 40.0609 40.9511 40.0609 39.8502V37.3271H41.6799C42.7894 37.3271 43.688 38.2188 43.688 39.3197V45.4641H28.4465L28.4467 39.3197ZM28.4467 50.2464V46.7918H43.6882V50.2464C43.6882 51.3448 42.7896 52.2389 41.6801 52.2389H30.4548C29.3453 52.2389 28.4467 51.3448 28.4467 50.2464ZM29.4708 53.5664H36.833C35.9846 55.2825 35.5628 57.1754 35.6081 59.0857C35.3545 59.3173 35.1136 59.5564 34.8851 59.8105L29.4708 53.5664ZM41.9615 72.1967C39.0523 72.1893 36.6074 70.0274 36.266 67.1631H38.4423H38.4397C38.7636 68.8418 40.242 70.0548 41.964 70.0548C43.6859 70.0548 45.1669 68.8419 45.4882 67.1631H47.6569C47.318 70.0299 44.8707 72.1918 41.9615 72.1967ZM39.8254 67.1631H44.1026C43.8164 68.0971 42.9479 68.7347 41.964 68.7347C40.98 68.7347 40.114 68.0971 39.8254 67.1631ZM33.8337 65.8356V65.7958L33.8363 65.7933C33.9341 61.462 37.501 58.0023 41.8686 58.0023H42.0418C46.4245 58.0023 49.9964 61.4867 50.0742 65.8328L33.8337 65.8356ZM60.0668 68.0871L53.8618 68.0847L51.3592 65.6662V65.6687C51.2789 63.2552 50.2573 60.9688 48.5078 59.29C46.7582 57.6113 44.4213 56.6723 41.9887 56.6748H41.813C40.1062 56.6923 38.4394 57.1804 36.9936 58.082C37.0463 56.4805 37.5458 54.9239 38.4394 53.5864H52.3906C51.9966 55.7308 51.4544 61.5093 55.7366 65.9872C55.8621 66.1168 56.0353 66.1915 56.2185 66.1915H60.1669C60.1167 66.6024 60.0916 67.0159 60.0866 67.4268C60.0464 67.6859 60.054 67.8851 60.0665 68.0844L60.0668 68.0871ZM60.383 64.8842C60.3529 64.8792 60.3253 64.8792 60.2952 64.8842H56.4723C55.9226 64.274 55.4406 63.6065 55.034 62.8916H61.1386C60.8148 63.5268 60.5613 64.1943 60.383 64.8842ZM62.4313 68.0847H61.4071V67.4196V67.4221C61.4197 63.9477 63.4654 60.7993 66.6482 59.3551C69.831 57.9109 73.5689 58.4335 76.2266 60.6926C71.854 60.9591 66.3999 62.5652 62.4313 68.0847ZM71.006 65.4271L70.1701 64.1643H70.2831V64.1668C71.0336 64.1568 71.6912 64.6624 71.8745 65.3848C72.0552 66.1071 71.7138 66.8592 71.0461 67.2005C70.3809 67.5442 69.5652 67.3873 69.0757 66.8219C68.5837 66.259 68.5511 65.4346 68.9904 64.8319L69.8864 66.1594C70.1023 66.4682 70.529 66.5479 70.8403 66.3362C71.1541 66.122 71.2319 65.6986 71.0185 65.3897L71.006 65.4271ZM70.2956 72.1966C67.5771 72.2016 65.1424 70.5229 64.1985 67.9923C65.1348 66.8342 66.2317 65.813 67.4566 64.9562C67.3839 65.2103 67.3462 65.4718 67.3437 65.7333C67.3412 66.8267 67.9511 67.828 68.9275 68.3361C69.9015 68.8417 71.0787 68.7694 71.9823 68.1443C72.886 67.5191 73.3629 66.4481 73.2223 65.3672C73.0818 64.2838 72.3463 63.3672 71.3121 62.9911C72.7178 62.5104 74.1761 62.2015 75.6571 62.067C77.0301 64.0422 77.1858 66.61 76.0638 68.7345C74.9392 70.859 72.7203 72.1891 70.3031 72.1891L70.2956 72.1966Z"/>
</mask>
<path d="M71.5478 57.2654C71.5428 57.2554 71.5428 57.243 71.5478 57.233L66.8138 45.6687H67.115C67.4714 45.6687 67.8102 45.5292 68.0613 45.2802C68.3123 45.0311 68.4554 44.6924 68.4554 44.3411V41.584C68.4554 41.2328 68.3123 40.8941 68.0613 40.645C67.8103 40.3959 67.4714 40.2564 67.115 40.2564H62.4311C60.9827 40.2564 59.8105 41.4171 59.8055 42.8542V43.0659C59.8105 43.4744 59.9109 43.8778 60.1017 44.2415C59.7453 44.0248 59.4365 43.7459 59.183 43.4171C58.3145 42.2589 56.944 41.5765 55.4881 41.5715H55.1593H55.1618C54.7903 41.5715 54.4916 41.8679 54.4916 42.2366C54.4916 42.6027 54.7903 42.8991 55.1618 42.8991H55.4906H55.4881C56.5248 42.9091 57.4962 43.4022 58.1137 44.2291C58.8994 45.2751 60.1017 45.9377 61.412 46.0473L62.7097 60.6052L62.7122 60.6077C62.431 60.9115 62.17 61.2303 61.929 61.5641L54.3985 61.5292C53.4396 58.9838 53.2087 56.2266 53.7283 53.5591H55.1741C55.3523 53.5591 55.523 53.4894 55.6485 53.3648C55.774 53.2403 55.8443 53.0709 55.8443 52.8966V51.0087C55.8393 49.4844 54.5943 48.2491 53.0581 48.2466H45.0257V39.32C45.0257 38.4383 44.6743 37.594 44.0468 36.9713C43.4193 36.3487 42.5684 36 41.6798 36H30.4544C28.607 36 27.1085 37.4869 27.1085 39.32V50.2467C27.1034 50.9641 27.3394 51.6665 27.7762 52.2393H25.6677C25.2987 52.2393 25 52.5357 25 52.9018C25 53.2704 25.2987 53.5668 25.6677 53.5668H27.7084L34.034 60.8719H34.0365C33.0651 62.3215 32.5329 64.0152 32.4953 65.7536V66.4709C32.4903 66.6502 32.558 66.8221 32.6835 66.9491C32.8116 67.0786 32.9848 67.1509 33.1655 67.1484H34.9201C35.2564 70.7599 38.3087 73.522 41.9635 73.522C45.6183 73.522 48.6727 70.7599 49.0095 67.1484H51.0175L53.1461 69.2131V69.2156C53.2716 69.3352 53.4398 69.4024 53.6155 69.3999H62.7923C62.9705 69.3975 63.1437 69.3252 63.2667 69.1957C64.1503 71.1583 65.812 72.6702 67.8577 73.375C69.9034 74.0824 72.155 73.918 74.0727 72.9217C75.993 71.9255 77.4137 70.187 77.9961 68.1147C78.5809 66.045 78.2772 63.8283 77.1552 61.9877H77.7526C78.0111 61.9902 78.2496 61.8432 78.36 61.6091C78.473 61.375 78.4353 61.0985 78.2672 60.8993C76.5779 58.8793 74.1734 57.5792 71.5478 57.2654ZM70.0895 57.2131H70.087C67.858 57.2629 65.7043 58.035 63.9573 59.4123L62.7323 45.6687H65.3705L70.0895 57.2131ZM62.4311 44.341C61.7207 44.341 61.1459 43.7707 61.1459 43.0658V42.8541C61.1484 42.1517 61.7233 41.5839 62.4311 41.5839H67.115V44.341L62.4311 44.341ZM45.026 50.2464V49.5814H53.0583C53.859 49.5814 54.5092 50.2215 54.5117 51.016V52.2389H44.3581C44.7924 51.6636 45.026 50.9637 45.026 50.2464ZM33.4067 37.3271H38.7206V39.8502C38.7206 40.027 38.6503 40.1964 38.5248 40.3209C38.3993 40.4454 38.2286 40.5152 38.0529 40.5152H34.0769C33.7054 40.5152 33.4066 40.2188 33.4066 39.8501L33.4067 37.3271ZM28.4467 39.3197C28.4467 38.2188 29.3453 37.3271 30.4548 37.3271H32.0687V39.8502C32.0687 40.9511 32.9673 41.8427 34.0768 41.8427H38.0529C39.1598 41.8427 40.0609 40.9511 40.0609 39.8502V37.3271H41.6799C42.7894 37.3271 43.688 38.2188 43.688 39.3197V45.4641H28.4465L28.4467 39.3197ZM28.4467 50.2464V46.7918H43.6882V50.2464C43.6882 51.3448 42.7896 52.2389 41.6801 52.2389H30.4548C29.3453 52.2389 28.4467 51.3448 28.4467 50.2464ZM29.4708 53.5664H36.833C35.9846 55.2825 35.5628 57.1754 35.6081 59.0857C35.3545 59.3173 35.1136 59.5564 34.8851 59.8105L29.4708 53.5664ZM41.9615 72.1967C39.0523 72.1893 36.6074 70.0274 36.266 67.1631H38.4423H38.4397C38.7636 68.8418 40.242 70.0548 41.964 70.0548C43.6859 70.0548 45.1669 68.8419 45.4882 67.1631H47.6569C47.318 70.0299 44.8707 72.1918 41.9615 72.1967ZM39.8254 67.1631H44.1026C43.8164 68.0971 42.9479 68.7347 41.964 68.7347C40.98 68.7347 40.114 68.0971 39.8254 67.1631ZM33.8337 65.8356V65.7958L33.8363 65.7933C33.9341 61.462 37.501 58.0023 41.8686 58.0023H42.0418C46.4245 58.0023 49.9964 61.4867 50.0742 65.8328L33.8337 65.8356ZM60.0668 68.0871L53.8618 68.0847L51.3592 65.6662V65.6687C51.2789 63.2552 50.2573 60.9688 48.5078 59.29C46.7582 57.6113 44.4213 56.6723 41.9887 56.6748H41.813C40.1062 56.6923 38.4394 57.1804 36.9936 58.082C37.0463 56.4805 37.5458 54.9239 38.4394 53.5864H52.3906C51.9966 55.7308 51.4544 61.5093 55.7366 65.9872C55.8621 66.1168 56.0353 66.1915 56.2185 66.1915H60.1669C60.1167 66.6024 60.0916 67.0159 60.0866 67.4268C60.0464 67.6859 60.054 67.8851 60.0665 68.0844L60.0668 68.0871ZM60.383 64.8842C60.3529 64.8792 60.3253 64.8792 60.2952 64.8842H56.4723C55.9226 64.274 55.4406 63.6065 55.034 62.8916H61.1386C60.8148 63.5268 60.5613 64.1943 60.383 64.8842ZM62.4313 68.0847H61.4071V67.4196V67.4221C61.4197 63.9477 63.4654 60.7993 66.6482 59.3551C69.831 57.9109 73.5689 58.4335 76.2266 60.6926C71.854 60.9591 66.3999 62.5652 62.4313 68.0847ZM71.006 65.4271L70.1701 64.1643H70.2831V64.1668C71.0336 64.1568 71.6912 64.6624 71.8745 65.3848C72.0552 66.1071 71.7138 66.8592 71.0461 67.2005C70.3809 67.5442 69.5652 67.3873 69.0757 66.8219C68.5837 66.259 68.5511 65.4346 68.9904 64.8319L69.8864 66.1594C70.1023 66.4682 70.529 66.5479 70.8403 66.3362C71.1541 66.122 71.2319 65.6986 71.0185 65.3897L71.006 65.4271ZM70.2956 72.1966C67.5771 72.2016 65.1424 70.5229 64.1985 67.9923C65.1348 66.8342 66.2317 65.813 67.4566 64.9562C67.3839 65.2103 67.3462 65.4718 67.3437 65.7333C67.3412 66.8267 67.9511 67.828 68.9275 68.3361C69.9015 68.8417 71.0787 68.7694 71.9823 68.1443C72.886 67.5191 73.3629 66.4481 73.2223 65.3672C73.0818 64.2838 72.3463 63.3672 71.3121 62.9911C72.7178 62.5104 74.1761 62.2015 75.6571 62.067C77.0301 64.0422 77.1858 66.61 76.0638 68.7345C74.9392 70.859 72.7203 72.1891 70.3031 72.1891L70.2956 72.1966Z" fill="#3D3D3D"/>
<path d="M60.7327 65.2416L60.7352 65.2391L60.0308 64.5293L60.0283 64.5318L60.7327 65.2416ZM71.5478 57.2654L70.6548 57.7154L70.8963 58.1946L71.4291 58.2583L71.5478 57.2654ZM71.5478 57.233L72.4408 57.683L72.646 57.276L72.4733 56.8542L71.5478 57.233ZM66.8138 45.6687V44.6687H65.3238L65.8883 46.0476L66.8138 45.6687ZM68.0613 45.2802L68.7656 45.9901L68.7657 45.99L68.0613 45.2802ZM68.0613 40.645L68.7657 39.9352L68.7656 39.9351L68.0613 40.645ZM59.8055 42.8542L58.8055 42.8507V42.8542H59.8055ZM59.8055 43.0659H58.8054L58.8056 43.0782L59.8055 43.0659ZM60.1017 44.2415L59.5823 45.096L62.6609 46.9676L60.9873 43.777L60.1017 44.2415ZM59.183 43.4171L58.3829 44.0171L58.3911 44.0277L59.183 43.4171ZM55.4881 41.5715L55.4915 40.5715H55.4881V41.5715ZM55.4881 42.8991V41.8991L55.4785 43.899L55.4881 42.8991ZM58.1137 44.2291L57.3124 44.8274L57.3141 44.8296L58.1137 44.2291ZM61.412 46.0473L62.408 45.9585L62.3333 45.1209L61.4953 45.0508L61.412 46.0473ZM62.7097 60.6052L61.7136 60.694L61.746 61.0577L62.0053 61.315L62.7097 60.6052ZM62.7122 60.6077L63.4462 61.2868L64.1019 60.578L63.4166 59.8979L62.7122 60.6077ZM61.929 61.5641L61.9244 62.5641L62.4386 62.5665L62.7397 62.1495L61.929 61.5641ZM54.3985 61.5292L53.4627 61.8817L53.7054 62.526L54.3939 62.5292L54.3985 61.5292ZM53.7283 53.5591V52.5591H52.9043L52.7467 53.3679L53.7283 53.5591ZM55.8443 51.0087H56.8443L56.8443 51.0054L55.8443 51.0087ZM53.0581 48.2466L53.0597 47.2466H53.0581V48.2466ZM45.0257 48.2466H44.0257V49.2466H45.0257V48.2466ZM44.0468 36.9713L44.7512 36.2615L44.7512 36.2615L44.0468 36.9713ZM27.1085 50.2467L28.1085 50.2537V50.2467H27.1085ZM27.7762 52.2393V53.2393H29.7962L28.5714 51.6329L27.7762 52.2393ZM27.7084 53.5668L28.4644 52.9122L28.1653 52.5668H27.7084V53.5668ZM34.034 60.8719L33.278 61.5265L33.5771 61.8719H34.034V60.8719ZM34.0365 60.8719L34.8672 61.4286L35.9104 59.8719H34.0365V60.8719ZM32.4953 65.7536L31.4955 65.7319L31.4953 65.7428V65.7536H32.4953ZM32.4953 66.4709L33.4949 66.4989L33.4953 66.4849V66.4709H32.4953ZM32.6835 66.9491L31.9722 67.652L31.9723 67.6521L32.6835 66.9491ZM33.1655 67.1484V66.1483L33.1517 66.1485L33.1655 67.1484ZM34.9201 67.1484L35.9158 67.0556L35.8313 66.1484H34.9201V67.1484ZM49.0095 67.1484V66.1484H48.0984L48.0138 67.0555L49.0095 67.1484ZM51.0175 67.1484L51.7138 66.4306L51.4229 66.1484H51.0175V67.1484ZM53.1461 69.2131H54.1461V68.79L53.8424 68.4954L53.1461 69.2131ZM53.1461 69.2156H52.1461V69.6441L52.4564 69.9397L53.1461 69.2156ZM53.6155 69.3999V68.3999H53.6084L53.6013 68.4L53.6155 69.3999ZM62.7923 69.3999V70.4L62.8063 70.3998L62.7923 69.3999ZM63.2667 69.1957L64.1786 68.7852L63.5672 67.4271L62.5416 68.5071L63.2667 69.1957ZM67.8577 73.375L68.1845 72.43L68.1835 72.4296L67.8577 73.375ZM74.0727 72.9217L73.6122 72.0341L73.6117 72.0344L74.0727 72.9217ZM77.9961 68.1147L77.0337 67.8428L77.0334 67.8442L77.9961 68.1147ZM77.1552 61.9877V60.9877H75.3744L76.3013 62.5082L77.1552 61.9877ZM77.7526 61.9877L77.7622 60.9877H77.7526V61.9877ZM78.36 61.6091L77.4593 61.1746L77.4556 61.1825L78.36 61.6091ZM78.2672 60.8993L77.5 61.5408L77.503 61.5442L78.2672 60.8993ZM70.0895 57.2131V58.2131H71.5786L71.0151 56.8347L70.0895 57.2131ZM70.087 57.2131V56.2131H70.0758L70.0646 56.2133L70.087 57.2131ZM63.9573 59.4123L62.9612 59.5011L63.1252 61.3416L64.5764 60.1977L63.9573 59.4123ZM62.7323 45.6687V44.6687H61.6393L61.7363 45.7574L62.7323 45.6687ZM65.3705 45.6687L66.2961 45.2903L66.042 44.6687H65.3705V45.6687ZM62.4311 44.341V45.341H62.4311L62.4311 44.341ZM61.1459 42.8541L60.1459 42.8505V42.8541H61.1459ZM67.115 41.5839H68.115V40.5839H67.115V41.5839ZM67.115 44.341L67.115 45.341L68.115 45.341V44.341H67.115ZM45.026 49.5814V48.5814H44.026V49.5814H45.026ZM54.5117 51.016H55.5117L55.5117 51.0128L54.5117 51.016ZM54.5117 52.2389V53.2389H55.5117V52.2389H54.5117ZM44.3581 52.2389L43.5599 51.6365L42.3505 53.2389H44.3581V52.2389ZM33.4067 37.3271V36.3271H32.4067L32.4067 37.3271L33.4067 37.3271ZM38.7206 37.3271H39.7206V36.3271H38.7206V37.3271ZM33.4066 39.8501L32.4066 39.8501V39.8501H33.4066ZM28.4467 39.3197L29.4467 39.3197V39.3197H28.4467ZM32.0687 37.3271H33.0687V36.3271H32.0687V37.3271ZM40.0609 37.3271V36.3271H39.0609V37.3271H40.0609ZM43.688 45.4641V46.4641H44.688V45.4641H43.688ZM28.4465 45.4641L27.4465 45.4641L27.4464 46.4641H28.4465V45.4641ZM28.4467 46.7918V45.7918H27.4467V46.7918H28.4467ZM43.6882 46.7918H44.6882V45.7918H43.6882V46.7918ZM29.4708 53.5664V52.5664H27.2801L28.7153 54.2215L29.4708 53.5664ZM36.833 53.5664L37.7294 54.0096L38.4429 52.5664H36.833V53.5664ZM35.6081 59.0857L36.2826 59.824L36.6186 59.517L36.6078 59.062L35.6081 59.0857ZM34.8851 59.8105L34.1296 60.4656L34.8715 61.3212L35.6288 60.4791L34.8851 59.8105ZM41.9615 72.1967L41.9589 73.1967L41.9632 73.1967L41.9615 72.1967ZM36.266 67.1631V66.1631H35.1397L35.273 67.2815L36.266 67.1631ZM38.4397 67.1631V66.1631H37.2284L37.4578 67.3525L38.4397 67.1631ZM45.4882 67.1631V66.1631H44.6614L44.506 66.9751L45.4882 67.1631ZM47.6569 67.1631L48.65 67.2805L48.7821 66.1631H47.6569V67.1631ZM39.8254 67.1631V66.1631H38.4696L38.87 67.4584L39.8254 67.1631ZM44.1026 67.1631L45.0587 67.4561L45.4548 66.1631H44.1026V67.1631ZM33.8337 65.8356H32.8337V66.8358L33.8339 66.8356L33.8337 65.8356ZM33.8337 65.7958L33.1289 65.0864L32.8337 65.3797V65.7958H33.8337ZM33.8363 65.7933L34.5411 66.5027L34.8269 66.2187L34.836 65.8159L33.8363 65.7933ZM50.0742 65.8328L50.0743 66.8328L51.0922 66.8326L51.074 65.8149L50.0742 65.8328ZM60.0668 68.0871L60.0664 69.0871L61.1594 69.0876L61.0629 67.9988L60.0668 68.0871ZM53.8618 68.0847L53.1669 68.8037L53.4574 69.0845L53.8614 69.0847L53.8618 68.0847ZM51.3592 65.6662L52.0542 64.9471L50.3592 63.3092V65.6662H51.3592ZM51.3592 65.6687L50.3598 65.702L52.3592 65.6687H51.3592ZM48.5078 59.29L49.2001 58.5685L49.2001 58.5685L48.5078 59.29ZM41.9887 56.6748V57.6748H41.9897L41.9887 56.6748ZM41.813 56.6748V55.6748L41.8028 55.6749L41.813 56.6748ZM36.9936 58.082L35.9941 58.0491L35.9325 59.9222L37.5227 58.9306L36.9936 58.082ZM38.4394 53.5864V52.5864H37.9049L37.6079 53.0308L38.4394 53.5864ZM52.3906 53.5864L53.3742 53.7671L53.5912 52.5864H52.3906V53.5864ZM55.7366 65.9872L55.0139 66.6784L55.0185 66.6831L55.7366 65.9872ZM60.1669 66.1915L61.1595 66.3127L61.2965 65.1915H60.1669V66.1915ZM60.0866 67.4268L61.0748 67.5801L61.0857 67.51L61.0865 67.4391L60.0866 67.4268ZM60.0665 68.0844L59.0685 68.1472L59.0693 68.16L59.0704 68.1727L60.0665 68.0844ZM60.383 64.8842L60.2199 65.8708L61.1224 66.02L61.3513 65.1343L60.383 64.8842ZM60.2952 64.8842V65.8842H60.3773L60.4583 65.8708L60.2952 64.8842ZM56.4723 64.8842L55.7293 65.5535L56.0272 65.8842H56.4723V64.8842ZM55.034 62.8916V61.8916H53.3147L54.1648 63.3861L55.034 62.8916ZM61.1386 62.8916L62.0295 63.3459L62.7709 61.8916H61.1386V62.8916ZM62.4313 68.0847V69.0847H62.9439L63.2432 68.6684L62.4313 68.0847ZM61.4071 68.0847H60.4071V69.0847H61.4071V68.0847ZM61.4071 67.4221H60.4071L62.4071 67.4257L61.4071 67.4221ZM76.2266 60.6926L76.2875 61.6907L78.7672 61.5396L76.8743 59.9307L76.2266 60.6926ZM71.006 65.4271L70.1721 65.9791L71.3027 67.6871L71.9541 65.7451L71.006 65.4271ZM70.1701 64.1643V63.1643H68.3089L69.3362 64.7163L70.1701 64.1643ZM70.2831 64.1643H71.2831V63.1643H70.2831V64.1643ZM70.2831 64.1668H69.2831V65.1802L70.2963 65.1667L70.2831 64.1668ZM71.8745 65.3848L72.8446 65.142L72.8438 65.1388L71.8745 65.3848ZM71.0461 67.2005L70.591 66.31L70.5871 66.3121L71.0461 67.2005ZM69.0757 66.8219L69.8318 66.1674L69.8286 66.1638L69.0757 66.8219ZM68.9904 64.8319L69.8192 64.2724L69.0217 63.091L68.1822 64.2429L68.9904 64.8319ZM69.8864 66.1594L69.0576 66.7188L69.0622 66.7256L69.0668 66.7323L69.8864 66.1594ZM70.8403 66.3362L71.4027 67.1631L71.4041 67.1621L70.8403 66.3362ZM71.0185 65.3897L71.8413 64.8214L70.7058 63.1776L70.0704 65.0717L71.0185 65.3897ZM70.2956 72.1966L70.2974 73.1966L70.7122 73.1958L71.0047 72.9017L70.2956 72.1966ZM64.1985 67.9923L63.4209 67.3637L63.0622 67.8073L63.2616 68.3418L64.1985 67.9923ZM67.4566 64.9562L68.418 65.2317L69.1949 62.5201L66.8835 64.1368L67.4566 64.9562ZM67.3437 65.7333L66.3437 65.7238L66.3437 65.7311L67.3437 65.7333ZM68.9275 68.3361L68.466 69.2232L68.4668 69.2236L68.9275 68.3361ZM73.2223 65.3672L72.2307 65.4958L72.2307 65.4961L73.2223 65.3672ZM71.3121 62.9911L70.9885 62.0449L68.3065 62.962L70.9703 63.9308L71.3121 62.9911ZM75.6571 62.067L76.4782 61.4963L76.1461 61.0185L75.5667 61.0711L75.6571 62.067ZM76.0638 68.7345L76.9476 69.2023L76.948 69.2015L76.0638 68.7345ZM70.3031 72.1891V71.1891H69.8872L69.594 71.484L70.3031 72.1891ZM72.4408 56.8154C72.5785 57.0885 72.5785 57.4099 72.4408 57.683L70.6548 56.783C70.5071 57.076 70.5071 57.4224 70.6548 57.7154L72.4408 56.8154ZM72.4733 56.8542L67.7392 45.2898L65.8883 46.0476L70.6224 57.6119L72.4733 56.8542ZM66.8138 46.6687H67.115V44.6687H66.8138V46.6687ZM67.115 46.6687C67.734 46.6687 68.3263 46.4258 68.7656 45.9901L67.357 44.5702C67.2942 44.6326 67.2088 44.6687 67.115 44.6687V46.6687ZM68.7657 45.99C69.2025 45.5566 69.4554 44.9637 69.4554 44.3411H67.4554C67.4554 44.421 67.4222 44.5056 67.357 44.5703L68.7657 45.99ZM69.4554 44.3411V41.584H67.4554V44.3411H69.4554ZM69.4554 41.584C69.4554 40.9614 69.2024 40.3686 68.7657 39.9352L67.3569 41.3548C67.4222 41.4196 67.4554 41.5042 67.4554 41.584H69.4554ZM68.7656 39.9351C68.3264 39.4993 67.734 39.2564 67.115 39.2564V41.2564C67.2089 41.2564 67.2942 41.2926 67.357 41.3548L68.7656 39.9351ZM67.115 39.2564H62.4311V41.2564H67.115V39.2564ZM62.4311 39.2564C60.4384 39.2564 58.8125 40.8562 58.8055 42.8507L60.8055 42.8577C60.8086 41.978 61.5271 41.2564 62.4311 41.2564V39.2564ZM58.8055 42.8542V43.0659H60.8055V42.8542H58.8055ZM58.8056 43.0782C58.8125 43.6421 58.9511 44.2008 59.2161 44.706L60.9873 43.777C60.8708 43.5549 60.8086 43.3067 60.8054 43.0536L58.8056 43.0782ZM60.6212 43.387C60.3722 43.2357 60.1551 43.0402 59.975 42.8065L58.3911 44.0277C58.7179 44.4516 59.1183 44.814 59.5823 45.096L60.6212 43.387ZM59.983 42.8171C58.9242 41.4052 57.2573 40.5776 55.4915 40.5715L55.4847 42.5715C56.6307 42.5754 57.7048 43.1127 58.383 44.017L59.983 42.8171ZM55.4881 40.5715H55.1593V42.5715H55.4881V40.5715ZM55.1593 42.5715H55.1618V40.5715H55.1593V42.5715ZM55.1618 40.5715C54.2454 40.5715 53.4916 41.3083 53.4916 42.2366H55.4916C55.4916 42.4275 55.3352 42.5715 55.1618 42.5715V40.5715ZM53.4916 42.2366C53.4916 43.1647 54.2478 43.8991 55.1618 43.8991V41.8991C55.3328 41.8991 55.4916 42.0407 55.4916 42.2366H53.4916ZM55.1618 43.8991H55.4906V41.8991H55.1618V43.8991ZM55.4906 41.8991H55.4881V43.8991H55.4906V41.8991ZM55.4785 43.899C56.2037 43.906 56.882 44.2511 57.3124 44.8274L58.9149 43.6308C58.1104 42.5533 56.846 41.9121 55.4977 41.8991L55.4785 43.899ZM57.3141 44.8296C58.2722 46.1053 59.7359 46.9106 61.3286 47.0438L61.4953 45.0508C60.4675 44.9648 59.5265 44.445 58.9133 43.6285L57.3141 44.8296ZM60.4159 46.1361L61.7136 60.694L63.7057 60.5164L62.408 45.9585L60.4159 46.1361ZM62.0053 61.315L62.0078 61.3175L63.4166 59.8979L63.4141 59.8954L62.0053 61.315ZM61.9781 59.9286C61.6697 60.2619 61.383 60.612 61.1183 60.9787L62.7397 62.1495C62.9569 61.8487 63.1924 61.5612 63.4462 61.2868L61.9781 59.9286ZM61.9336 60.5641L54.4031 60.5292L54.3939 62.5292L61.9244 62.5641L61.9336 60.5641ZM55.3343 61.1767C54.4408 58.8049 54.2256 56.236 54.7098 53.7503L52.7467 53.3679C52.1917 56.2172 52.4384 59.1626 53.4627 61.8817L55.3343 61.1767ZM53.7283 54.5591H55.1741V52.5591H53.7283V54.5591ZM55.1741 54.5591C55.6129 54.5591 56.0377 54.3874 56.3529 54.0747L54.9442 52.655C55.0083 52.5913 55.0918 52.5591 55.1741 52.5591V54.5591ZM56.3529 54.0747C56.6669 53.7631 56.8443 53.3385 56.8443 52.8966H54.8443C54.8443 52.8034 54.8811 52.7175 54.9442 52.655L56.3529 54.0747ZM56.8443 52.8966V51.0087H54.8443V52.8966H56.8443ZM56.8443 51.0054C56.8374 48.9245 55.1399 47.2499 53.0597 47.2466L53.0565 49.2466C54.0486 49.2482 54.8411 50.0444 54.8443 51.012L56.8443 51.0054ZM53.0581 47.2466H45.0257V49.2466H53.0581V47.2466ZM46.0257 48.2466V39.32H44.0257V48.2466H46.0257ZM46.0257 39.32C46.0257 38.1716 45.5678 37.0718 44.7512 36.2615L43.3424 37.6812C43.7809 38.1162 44.0257 38.7051 44.0257 39.32H46.0257ZM44.7512 36.2615C43.9348 35.4515 42.8301 35 41.6798 35V37C42.3066 37 42.9038 37.2459 43.3425 37.6812L44.7512 36.2615ZM41.6798 35H30.4544V37H41.6798V35ZM30.4544 35C28.062 35 26.1085 36.9273 26.1085 39.32H28.1085C28.1085 38.0465 29.1519 37 30.4544 37V35ZM26.1085 39.32V50.2467H28.1085V39.32H26.1085ZM26.1085 50.2397C26.1019 51.1804 26.411 52.0981 26.981 52.8456L28.5714 51.6329C28.2678 51.2348 28.105 50.7477 28.1084 50.2537L26.1085 50.2397ZM27.7762 51.2393H25.6677V53.2393H27.7762V51.2393ZM25.6677 51.2393C24.7538 51.2393 24 51.976 24 52.9018H26C26 53.0953 25.8436 53.2393 25.6677 53.2393V51.2393ZM24 52.9018C24 53.8276 24.7513 54.5668 25.6677 54.5668V52.5668C25.8461 52.5668 26 52.7133 26 52.9018H24ZM25.6677 54.5668H27.7084V52.5668H25.6677V54.5668ZM26.9525 54.2214L33.278 61.5265L34.7899 60.2173L28.4644 52.9122L26.9525 54.2214ZM34.034 61.8719H34.0365V59.8719H34.034V61.8719ZM33.2058 60.3152C32.1276 61.924 31.5373 63.8035 31.4955 65.7319L33.495 65.7753C33.5286 64.2268 34.0025 62.7189 34.8672 61.4286L33.2058 60.3152ZM31.4953 65.7536V66.4709H33.4953V65.7536H31.4953ZM31.4957 66.4429C31.483 66.8943 31.6544 67.3303 31.9722 67.652L33.3949 66.2463C33.4617 66.3139 33.4975 66.4062 33.4949 66.4989L31.4957 66.4429ZM31.9723 67.6521C32.2873 67.9708 32.7206 68.1546 33.1793 68.1483L33.1517 66.1485C33.2489 66.1471 33.3358 66.1865 33.3947 66.2461L31.9723 67.6521ZM33.1655 68.1484H34.9201V66.1484H33.1655V68.1484ZM33.9244 67.2411C34.3092 71.3729 37.7986 74.522 41.9635 74.522V72.522C38.8188 72.522 36.2037 70.1468 35.9158 67.0556L33.9244 67.2411ZM41.9635 74.522C46.128 74.522 49.6199 71.3733 50.0051 67.2412L48.0138 67.0555C47.7256 70.1464 45.1085 72.522 41.9635 72.522V74.522ZM49.0095 68.1484H51.0175V66.1484H49.0095V68.1484ZM50.3213 67.8662L52.4499 69.9309L53.8424 68.4954L51.7138 66.4306L50.3213 67.8662ZM52.1461 69.2131V69.2156H54.1461V69.2131H52.1461ZM52.4564 69.9397C52.7689 70.2374 53.1889 70.4061 53.6297 70.3998L53.6013 68.4C53.6907 68.3988 53.7743 68.4329 53.8358 68.4916L52.4564 69.9397ZM53.6155 70.3999H62.7923V68.3999H53.6155V70.3999ZM62.8063 70.3998C63.2405 70.3938 63.6744 70.2186 63.9919 69.8843L62.5416 68.5071C62.6131 68.4319 62.7006 68.4011 62.7783 68.4L62.8063 70.3998ZM62.3549 69.6062C63.3525 71.8222 65.2273 73.5264 67.5319 74.3205L68.1835 72.4296C66.3966 71.8139 64.9481 70.4945 64.1786 68.7852L62.3549 69.6062ZM67.5309 74.3201C69.8357 75.1171 72.3721 74.9321 74.5337 73.8091L73.6117 72.0344C71.9379 72.9039 69.9712 73.0478 68.1845 72.43L67.5309 74.3201ZM74.5333 73.8094C76.697 72.6868 78.3009 70.7261 78.9588 68.3853L77.0334 67.8442C76.5265 69.6479 75.289 71.1642 73.6122 72.0341L74.5333 73.8094ZM78.9584 68.3867C79.619 66.0488 79.2756 63.545 78.009 61.4672L76.3013 62.5082C77.2788 64.1116 77.5428 66.0412 77.0337 67.8428L78.9584 68.3867ZM77.1552 62.9877H77.7526V60.9877H77.1552V62.9877ZM77.743 62.9877C78.3852 62.9938 78.9845 62.6292 79.2645 62.0358L77.4556 61.1825C77.5147 61.0573 77.6371 60.9865 77.7622 60.9877L77.743 62.9877ZM79.2607 62.0436C79.549 61.446 79.4479 60.7479 79.0314 60.2543L77.503 61.5442C77.4227 61.4492 77.3969 61.304 77.4594 61.1746L79.2607 62.0436ZM79.0343 60.2577C77.1807 58.0413 74.5438 56.6164 71.6665 56.2725L71.4291 58.2583C73.803 58.5421 75.9751 59.7173 77.5001 61.5408L79.0343 60.2577ZM70.0895 56.2131H70.087V58.2131H70.0895V56.2131ZM70.0646 56.2133C67.6195 56.268 65.2562 57.1149 63.3382 58.627L64.5764 60.1977C66.1524 58.9552 68.0964 58.2578 70.1093 58.2128L70.0646 56.2133ZM64.9533 59.3236L63.7284 45.5799L61.7363 45.7574L62.9612 59.5011L64.9533 59.3236ZM62.7323 46.6687H65.3705V44.6687H62.7323V46.6687ZM64.4448 46.047L69.1638 57.5915L71.0151 56.8347L66.2961 45.2903L64.4448 46.047ZM62.4311 43.341C62.2657 43.341 62.1459 43.2111 62.1459 43.0658H60.1459C60.1459 44.3303 61.1758 45.341 62.4311 45.341V43.341ZM62.1459 43.0658V42.8541H60.1459V43.0658H62.1459ZM62.1459 42.8577C62.1464 42.7139 62.2663 42.5839 62.4311 42.5839V40.5839C61.1802 40.5839 60.1504 41.5895 60.1459 42.8505L62.1459 42.8577ZM62.4311 42.5839H67.115V40.5839H62.4311V42.5839ZM66.115 41.5839V44.341H68.115V41.5839H66.115ZM67.115 43.341L62.4311 43.341L62.4311 45.341L67.115 45.341L67.115 43.341ZM46.026 50.2464V49.5814H44.026V50.2464H46.026ZM45.026 50.5814H53.0583V48.5814H45.026V50.5814ZM53.0583 50.5814C53.318 50.5814 53.5109 50.7856 53.5117 51.0191L55.5117 51.0128C55.5074 49.6573 54.4001 48.5814 53.0583 48.5814V50.5814ZM53.5117 51.016V52.2389H55.5117V51.016H53.5117ZM54.5117 51.2389H44.3581V53.2389H54.5117V51.2389ZM45.1563 52.8413C45.7217 52.0923 46.026 51.1808 46.026 50.2464H44.026C44.026 50.7466 43.8631 51.2349 43.5599 51.6365L45.1563 52.8413ZM33.4067 38.3271H38.7206V36.3271H33.4067V38.3271ZM37.7206 37.3271V39.8502H39.7206V37.3271H37.7206ZM37.7206 39.8502C37.7206 39.7614 37.756 39.675 37.8204 39.611L39.2291 41.0307C39.5446 40.7178 39.7206 40.2926 39.7206 39.8502H37.7206ZM37.8204 39.611C37.8832 39.5488 37.966 39.5152 38.0529 39.5152V41.5152C38.4911 41.5152 38.9154 41.3421 39.2291 41.0307L37.8204 39.611ZM38.0529 39.5152H34.0769V41.5152H38.0529V39.5152ZM34.0769 39.5152C34.2503 39.5152 34.4066 39.6592 34.4066 39.8501H32.4066C32.4066 40.7784 33.1605 41.5152 34.0769 41.5152V39.5152ZM34.4066 39.8502L34.4067 37.3272L32.4067 37.3271L32.4066 39.8501L34.4066 39.8502ZM29.4467 39.3197C29.4467 38.7784 29.8902 38.3271 30.4548 38.3271V36.3271C28.8003 36.3271 27.4467 37.6592 27.4467 39.3197H29.4467ZM30.4548 38.3271H32.0687V36.3271H30.4548V38.3271ZM31.0687 37.3271V39.8502H33.0687V37.3271H31.0687ZM31.0687 39.8502C31.0687 41.5107 32.4224 42.8427 34.0768 42.8427V40.8427C33.5123 40.8427 33.0687 40.3915 33.0687 39.8502H31.0687ZM34.0768 42.8427H38.0529V40.8427H34.0768V42.8427ZM38.0529 42.8427C39.704 42.8427 41.0609 41.5115 41.0609 39.8502H39.0609C39.0609 40.3906 38.6157 40.8427 38.0529 40.8427V42.8427ZM41.0609 39.8502V37.3271H39.0609V39.8502H41.0609ZM40.0609 38.3271H41.6799V36.3271H40.0609V38.3271ZM41.6799 38.3271C42.2445 38.3271 42.688 38.7784 42.688 39.3197H44.688C44.688 37.6592 43.3344 36.3271 41.6799 36.3271V38.3271ZM42.688 39.3197V45.4641H44.688V39.3197H42.688ZM43.688 44.4641H28.4465V46.4641H43.688V44.4641ZM29.4465 45.4642L29.4467 39.3197L27.4467 39.3196L27.4465 45.4641L29.4465 45.4642ZM29.4467 50.2464V46.7918H27.4467V50.2464H29.4467ZM28.4467 47.7918H43.6882V45.7918H28.4467V47.7918ZM42.6882 46.7918V50.2464H44.6882V46.7918H42.6882ZM42.6882 50.2464C42.6882 50.786 42.2439 51.2389 41.6801 51.2389V53.2389C43.3354 53.2389 44.6882 51.9036 44.6882 50.2464H42.6882ZM41.6801 51.2389H30.4548V53.2389H41.6801V51.2389ZM30.4548 51.2389C29.891 51.2389 29.4467 50.786 29.4467 50.2464H27.4467C27.4467 51.9036 28.7995 53.2389 30.4548 53.2389V51.2389ZM29.4708 54.5664H36.833V52.5664H29.4708V54.5664ZM35.9365 53.1232C35.017 54.9832 34.5592 57.0362 34.6083 59.1094L36.6078 59.062C36.5664 57.3146 36.9521 55.5818 37.7294 54.0096L35.9365 53.1232ZM34.9335 58.3474C34.66 58.5974 34.3953 58.8597 34.1415 59.1418L35.6288 60.4791C35.8319 60.2532 36.0491 60.0372 36.2826 59.824L34.9335 58.3474ZM35.6407 59.1553L30.2263 52.9113L28.7153 54.2215L34.1296 60.4656L35.6407 59.1553ZM41.964 71.1967C39.5541 71.1905 37.5398 69.4009 37.259 67.0448L35.273 67.2815C35.675 70.6539 38.5504 73.188 41.9589 73.1967L41.964 71.1967ZM36.266 68.1631H38.4423V66.1631H36.266V68.1631ZM38.4423 66.1631H38.4397V68.1631H38.4423V66.1631ZM37.4578 67.3525C37.8734 69.5069 39.768 71.0548 41.964 71.0548V69.0548C40.7161 69.0548 39.6537 68.1767 39.4216 66.9737L37.4578 67.3525ZM41.964 71.0548C44.1588 71.0548 46.0576 69.5079 46.4703 67.3511L44.506 66.9751C44.2762 68.1759 43.213 69.0548 41.964 69.0548V71.0548ZM45.4882 68.1631H47.6569V66.1631H45.4882V68.1631ZM46.6638 67.0457C46.3852 69.4032 44.3694 71.1926 41.9598 71.1967L41.9632 73.1967C45.372 73.1909 48.2509 70.6565 48.65 67.2805L46.6638 67.0457ZM39.8254 68.1631H44.1026V66.1631H39.8254V68.1631ZM43.1464 66.8702C42.9905 67.379 42.5137 67.7347 41.964 67.7347V69.7347C43.3821 69.7347 44.6423 68.8152 45.0587 67.4561L43.1464 66.8702ZM41.964 67.7347C41.4161 67.7347 40.9392 67.3804 40.7808 66.8678L38.87 67.4584C39.2888 68.8138 40.544 69.7347 41.964 69.7347V67.7347ZM34.8337 65.8356V65.7958H32.8337V65.8356H34.8337ZM34.5386 66.5052L34.5411 66.5027L33.1314 65.0839L33.1289 65.0864L34.5386 66.5052ZM34.836 65.8159C34.9214 62.0353 38.0371 59.0023 41.8686 59.0023V57.0023C36.9649 57.0023 32.9469 60.8887 32.8365 65.7707L34.836 65.8159ZM41.8686 59.0023H42.0418V57.0023H41.8686V59.0023ZM42.0418 59.0023C45.886 59.0023 49.0064 62.0567 49.0743 65.8507L51.074 65.8149C50.9864 60.9168 46.9629 57.0023 42.0418 57.0023V59.0023ZM50.074 64.8328L33.8336 64.8356L33.8339 66.8356L50.0743 66.8328L50.074 64.8328ZM60.0672 67.0871L53.8622 67.0847L53.8614 69.0847L60.0664 69.0871L60.0672 67.0871ZM54.5567 67.3656L52.0542 64.9471L50.6643 66.3853L53.1669 68.8037L54.5567 67.3656ZM50.3592 65.6662V65.6687H52.3592V65.6662H50.3592ZM52.3587 65.6354C52.2697 62.9603 51.1372 60.4272 49.2001 58.5685L47.8154 60.0116C49.3775 61.5104 50.2882 63.5502 50.3598 65.702L52.3587 65.6354ZM49.2001 58.5685C47.2639 56.7107 44.6784 55.6721 41.9877 55.6748L41.9897 57.6748C44.1642 57.6726 46.2525 58.512 47.8154 60.0116L49.2001 58.5685ZM41.9887 55.6748H41.813V57.6748H41.9887V55.6748ZM41.8028 55.6749C39.9118 55.6942 38.0656 56.235 36.4644 57.2335L37.5227 58.9306C38.8132 58.1258 40.3005 57.6903 41.8232 57.6748L41.8028 55.6749ZM37.993 58.1149C38.0396 56.7 38.4809 55.3243 39.2709 54.1419L37.6079 53.0308C36.6107 54.5234 36.053 56.2611 35.9941 58.0491L37.993 58.1149ZM38.4394 54.5864H52.3906V52.5864H38.4394V54.5864ZM51.4071 53.4056C50.9972 55.6364 50.387 61.8401 55.0139 66.6784L56.4593 65.2961C52.5217 61.1786 52.996 55.8253 53.3742 53.7671L51.4071 53.4056ZM55.0185 66.6831C55.3303 67.005 55.7617 67.1915 56.2185 67.1915V65.1915C56.3088 65.1915 56.3939 65.2285 56.4547 65.2913L55.0185 66.6831ZM56.2185 67.1915H60.1669V65.1915H56.2185V67.1915ZM59.1743 66.0702C59.1192 66.5213 59.0921 66.9714 59.0867 67.4146L61.0865 67.4391C61.0911 67.0604 61.1142 66.6836 61.1595 66.3127L59.1743 66.0702ZM59.0984 67.2736C59.0417 67.6392 59.0544 67.9229 59.0685 68.1472L61.0645 68.0215C61.0536 67.8474 61.0511 67.7326 61.0748 67.5801L59.0984 67.2736ZM59.0704 68.1727L59.0707 68.1755L61.0629 67.9988L61.0626 67.996L59.0704 68.1727ZM60.5462 63.8976C60.408 63.8747 60.2702 63.8747 60.132 63.8976L60.4583 65.8708C60.4238 65.8765 60.3835 65.8804 60.3391 65.8804C60.2947 65.8804 60.2545 65.8765 60.2199 65.8708L60.5462 63.8976ZM60.2952 63.8842H56.4723V65.8842H60.2952V63.8842ZM57.2153 64.2149C56.7138 63.6582 56.2742 63.0493 55.9032 62.3972L54.1648 63.3861C54.6071 64.1636 55.1314 64.8897 55.7293 65.5535L57.2153 64.2149ZM55.034 63.8916H61.1386V61.8916H55.034V63.8916ZM60.2477 62.4374C59.891 63.1371 59.6114 63.873 59.4148 64.634L61.3513 65.1343C61.5111 64.5156 61.7386 63.9165 62.0295 63.3459L60.2477 62.4374ZM62.4313 67.0847H61.4071V69.0847H62.4313V67.0847ZM62.4071 68.0847V67.4196H60.4071V68.0847H62.4071ZM60.4071 67.4196V67.4221H62.4071V67.4196H60.4071ZM62.4071 67.4257C62.4183 64.3454 64.2319 61.5496 67.0614 60.2657L66.235 58.4444C62.6989 60.0489 60.4211 63.5499 60.4071 67.4185L62.4071 67.4257ZM67.0614 60.2657C69.8923 58.9812 73.2168 59.4467 75.579 61.4545L76.8743 59.9307C73.921 57.4204 69.7697 56.8406 66.235 58.4444L67.0614 60.2657ZM76.1658 59.6945C71.5987 59.9728 65.8169 61.663 61.6194 67.5009L63.2432 68.6684C66.9829 63.4674 72.1094 61.9454 76.2875 61.6907L76.1658 59.6945ZM71.8399 64.8751L71.004 63.6124L69.3362 64.7163L70.1721 65.9791L71.8399 64.8751ZM70.1701 65.1643H70.2831V63.1643H70.1701V65.1643ZM69.2831 64.1643V64.1668H71.2831V64.1643H69.2831ZM70.2963 65.1667C70.5855 65.1629 70.836 65.3577 70.9052 65.6307L72.8438 65.1388C72.5465 63.9671 71.4817 63.1508 70.2698 63.1669L70.2963 65.1667ZM70.9044 65.6275C70.9718 65.8968 70.8456 66.18 70.591 66.31L71.5012 68.0909C72.5821 67.5385 73.1387 66.3173 72.8446 65.142L70.9044 65.6275ZM70.5871 66.3121C70.3319 66.4439 70.0185 66.3831 69.8317 66.1674L68.3197 67.4764C69.1118 68.3915 70.43 68.6445 71.5052 68.0889L70.5871 66.3121ZM69.8286 66.1638C69.6467 65.9557 69.632 65.6493 69.7985 65.4208L68.1822 64.2429C67.4701 65.2199 67.5207 66.5623 68.3228 67.48L69.8286 66.1638ZM68.1615 65.3913L69.0576 66.7188L70.7153 65.5999L69.8192 64.2724L68.1615 65.3913ZM69.0668 66.7323C69.5941 67.4867 70.6358 67.6847 71.4027 67.1631L70.2779 65.5093C70.4223 65.4112 70.6105 65.4498 70.7061 65.5865L69.0668 66.7323ZM71.4041 67.1621C72.174 66.6365 72.371 65.5882 71.8413 64.8214L70.1958 65.9581C70.0928 65.809 70.1341 65.6075 70.2765 65.5103L71.4041 67.1621ZM70.0704 65.0717L70.0579 65.1091L71.9541 65.7451L71.9666 65.7077L70.0704 65.0717ZM70.2938 71.1966C67.9897 71.2008 65.9319 69.7781 65.1355 67.6429L63.2616 68.3418C64.3529 71.2677 67.1646 73.2023 70.2974 73.1966L70.2938 71.1966ZM64.9762 68.621C65.853 67.5364 66.881 66.5792 68.0298 65.7757L66.8835 64.1368C65.5825 65.0467 64.4165 66.132 63.4209 67.3637L64.9762 68.621ZM66.4953 64.6808C66.3976 65.0217 66.3471 65.3727 66.3437 65.7238L68.3436 65.7429C68.3453 65.5709 68.3701 65.3988 68.418 65.2317L66.4953 64.6808ZM66.3437 65.7311C66.3403 67.202 67.1613 68.5443 68.466 69.2232L69.3891 67.449C68.7409 67.1117 68.342 66.4514 68.3437 65.7356L66.3437 65.7311ZM68.4668 69.2236C69.7683 69.8993 71.3419 69.8034 72.5513 68.9667L71.4134 67.3219C70.8156 67.7355 70.0346 67.7841 69.3883 67.4485L68.4668 69.2236ZM72.5513 68.9667C73.7608 68.1299 74.4031 66.6928 74.214 65.2383L72.2307 65.4961C72.3227 66.2035 72.0111 66.9084 71.4134 67.3219L72.5513 68.9667ZM74.214 65.2385C74.0251 63.7824 73.0372 62.5544 71.6539 62.0513L70.9703 63.9308C71.6554 64.18 72.1384 64.7851 72.2307 65.4958L74.214 65.2385ZM71.6357 63.9373C72.965 63.4827 74.3451 63.1903 75.7475 63.0629L75.5667 61.0711C74.0072 61.2127 72.4706 61.5381 70.9885 62.0449L71.6357 63.9373ZM74.836 62.6378C75.9957 64.306 76.1269 66.4736 75.1795 68.2675L76.948 69.2015C78.2446 66.7464 78.0646 63.7783 76.4782 61.4963L74.836 62.6378ZM75.1799 68.2667C74.23 70.0613 72.3528 71.1891 70.3031 71.1891V73.1891C73.0878 73.1891 75.6484 71.6568 76.9476 69.2023L75.1799 68.2667ZM69.594 71.484L69.5865 71.4915L71.0047 72.9017L71.0122 72.8942L69.594 71.484Z" fill="#57320C" mask="url(#path-2-inside-1_10060_14201)"/>
</g>
<line id="Line 8" x1="85" y1="73.7363" x2="29.1096" y2="73.7363" stroke="#D3AF5E" stroke-width="1.5"/>
</g>
</g>
</svg>
